<svg id="Layer_1" data-name="Layer 1" xmlns="http://www.w3.org/2000/svg" viewBox="0 0 89.57 94.5"><defs><style>.cls-1{font-size:9.4px;font-family:Multicolore, Multicolore ;letter-spacing:0.1em;}.cls-1,.cls-4{fill:#fff;}.cls-2{letter-spacing:0.01em;}.cls-3{letter-spacing:0.09em;}</style></defs><title>nclyne_white</title><text class="cls-1" transform="translate(24.83 74.74)">Nc<tspan class="cls-2" x="15.41" y="0">l</tspan><tspan class="cls-3" x="20.84" y="0">y</tspan><tspan x="27.78" y="0">ne</tspan></text><path class="cls-4" d="M65.38,61.93H25.63V22.18H65.38ZM53.68,34.6c0-1-.22-1.95-1.65-1.95-1,0-1.21.25-1.95,1L41,45V34.33a1.93,1.93,0,0,0-1.73-1.89,2.09,2.09,0,0,0-1.95,1.89V49.78a1.83,1.83,0,0,0,1.45,1.89,2.76,2.76,0,0,0,2.22-1l9.08-11.53V49.78a1.7,1.7,0,0,0,1.73,1.89,1.81,1.81,0,0,0,1.87-1.89Z"/></svg>